<?xml version="1.0" encoding="UTF-8" standalone="no" ?>
<!DOCTYPE svg PUBLIC "-//W3C//DTD SVG 1.1//EN" "http://www.w3.org/Graphics/SVG/1.1/DTD/svg11.dtd">
<svg xmlns="http://www.w3.org/2000/svg" xmlns:xlink="http://www.w3.org/1999/xlink" version="1.1" width="1080" height="1080" viewBox="0 0 1080 1080" xml:space="preserve">
<desc>Created with Fabric.js 5.2.4</desc>
<defs>
</defs>
<rect x="0" y="0" width="100%" height="100%" fill="transparent"></rect>
<g transform="matrix(Infinity NaN NaN Infinity 0 0)" id="f2495025-fdb7-4fdf-aec2-4e430792f590"  >
</g>
<g transform="matrix(1 0 0 1 540 540)" id="dc2409d5-4cea-4aa9-a864-1fb74ab0d934"  >
<rect style="stroke: none; stroke-width: 1; stroke-dasharray: none; stroke-linecap: butt; stroke-dashoffset: 0; stroke-linejoin: miter; stroke-miterlimit: 4; fill: rgb(255,255,255); fill-rule: nonzero; opacity: 1; visibility: hidden;" vector-effect="non-scaling-stroke"  x="-540" y="-540" rx="0" ry="0" width="1080" height="1080" />
</g>
<g transform="matrix(1.45 0 0 1.45 540 482.9)"  >
<g style="" vector-effect="non-scaling-stroke"   >
		<g transform="matrix(0.78 0 0 0.78 -210.95 55.88)"  >
<path style="stroke: none; stroke-width: 1; stroke-dasharray: none; stroke-linecap: butt; stroke-dashoffset: 0; stroke-linejoin: miter; stroke-miterlimit: 4; fill: rgb(0,0,0); fill-rule: nonzero; opacity: 1;" vector-effect="non-scaling-stroke"  transform=" translate(-297, -328.45)" d="M 264.5 282.9 L 342.6 361 L 329.5 374 L 251.4 295.9 z" stroke-linecap="round" />
</g>
		<g transform="matrix(0.78 0 0 0.78 -190.6 35.57)"  >
<path style="stroke: none; stroke-width: 1; stroke-dasharray: none; stroke-linecap: butt; stroke-dashoffset: 0; stroke-linejoin: miter; stroke-miterlimit: 4; fill: rgb(0,0,0); fill-rule: nonzero; opacity: 1;" vector-effect="non-scaling-stroke"  transform=" translate(-323.05, -302.45)" d="M 290.5 256.9 L 368.6 335 L 355.6 348 L 277.5 269.9 z" stroke-linecap="round" />
</g>
		<g transform="matrix(0.78 0 0 0.78 -302.48 -35.6)"  >
<path style="stroke: none; stroke-width: 1; stroke-dasharray: none; stroke-linecap: butt; stroke-dashoffset: 0; stroke-linejoin: miter; stroke-miterlimit: 4; fill: rgb(0,0,0); fill-rule: nonzero; opacity: 1;" vector-effect="non-scaling-stroke"  transform=" translate(-179.85, -211.35)" d="M 147.3 165.8 L 225.4 243.9 L 212.4 256.9 L 134.3 178.79999999999998 z" stroke-linecap="round" />
</g>
		<g transform="matrix(0.78 0 0 0.78 -282.17 -55.95)"  >
<path style="stroke: none; stroke-width: 1; stroke-dasharray: none; stroke-linecap: butt; stroke-dashoffset: 0; stroke-linejoin: miter; stroke-miterlimit: 4; fill: rgb(0,0,0); fill-rule: nonzero; opacity: 1;" vector-effect="non-scaling-stroke"  transform=" translate(-205.85, -185.3)" d="M 173.3 139.7 L 251.4 217.79999999999998 L 238.4 230.89999999999998 L 160.3 152.79999999999998 z" stroke-linecap="round" />
</g>
		<g transform="matrix(0.78 0 0 0.78 -210.95 -55.99)"  >
<path style="stroke: none; stroke-width: 1; stroke-dasharray: none; stroke-linecap: butt; stroke-dashoffset: 0; stroke-linejoin: miter; stroke-miterlimit: 4; fill: rgb(0,0,0); fill-rule: nonzero; opacity: 1;" vector-effect="non-scaling-stroke"  transform=" translate(-297, -185.25)" d="M 342.6 152.8 L 264.5 230.8 L 251.4 217.8 L 329.5 139.70000000000002 z" stroke-linecap="round" />
</g>
		<g transform="matrix(0.78 0 0 0.78 -190.6 -35.6)"  >
<path style="stroke: none; stroke-width: 1; stroke-dasharray: none; stroke-linecap: butt; stroke-dashoffset: 0; stroke-linejoin: miter; stroke-miterlimit: 4; fill: rgb(0,0,0); fill-rule: nonzero; opacity: 1;" vector-effect="non-scaling-stroke"  transform=" translate(-323.05, -211.35)" d="M 368.6 178.8 L 290.5 256.9 L 277.5 243.89999999999998 L 355.6 165.79999999999998 z" stroke-linecap="round" />
</g>
		<g transform="matrix(0.78 0 0 0.78 -302.48 35.57)"  >
<path style="stroke: none; stroke-width: 1; stroke-dasharray: none; stroke-linecap: butt; stroke-dashoffset: 0; stroke-linejoin: miter; stroke-miterlimit: 4; fill: rgb(0,0,0); fill-rule: nonzero; opacity: 1;" vector-effect="non-scaling-stroke"  transform=" translate(-179.85, -302.45)" d="M 225.4 269.9 L 147.3 348 L 134.3 335 L 212.4 256.9 z" stroke-linecap="round" />
</g>
		<g transform="matrix(0.78 0 0 0.78 -282.17 55.88)"  >
<path style="stroke: none; stroke-width: 1; stroke-dasharray: none; stroke-linecap: butt; stroke-dashoffset: 0; stroke-linejoin: miter; stroke-miterlimit: 4; fill: rgb(0,0,0); fill-rule: nonzero; opacity: 1;" vector-effect="non-scaling-stroke"  transform=" translate(-205.85, -328.45)" d="M 251.4 295.9 L 173.3 374 L 160.3 361 L 238.4 282.9 z" stroke-linecap="round" />
</g>
		<g transform="matrix(0.78 0 0 0.78 -260.91 -86.32)"  >
<path style="stroke: none; stroke-width: 1; stroke-dasharray: none; stroke-linecap: butt; stroke-dashoffset: 0; stroke-linejoin: miter; stroke-miterlimit: 4; fill: rgb(0,0,0); fill-rule: nonzero; opacity: 1;" vector-effect="non-scaling-stroke"  transform=" translate(-233, -146.4)" d="M 223.8 118.8 L 242.20000000000002 118.8 L 242.20000000000002 174 L 223.8 174 z" stroke-linecap="round" />
</g>
		<g transform="matrix(0.78 0 0 0.78 -232.13 -86.32)"  >
<path style="stroke: none; stroke-width: 1; stroke-dasharray: none; stroke-linecap: butt; stroke-dashoffset: 0; stroke-linejoin: miter; stroke-miterlimit: 4; fill: rgb(0,0,0); fill-rule: nonzero; opacity: 1;" vector-effect="non-scaling-stroke"  transform=" translate(-269.85, -146.4)" d="M 260.6 118.8 L 279.1 118.8 L 279.1 174 L 260.6 174 z" stroke-linecap="round" />
</g>
		<g transform="matrix(0.78 0 0 0.78 -260.91 86.26)"  >
<path style="stroke: none; stroke-width: 1; stroke-dasharray: none; stroke-linecap: butt; stroke-dashoffset: 0; stroke-linejoin: miter; stroke-miterlimit: 4; fill: rgb(0,0,0); fill-rule: nonzero; opacity: 1;" vector-effect="non-scaling-stroke"  transform=" translate(-233, -367.3)" d="M 223.8 339.7 L 242.20000000000002 339.7 L 242.20000000000002 394.9 L 223.8 394.9 z" stroke-linecap="round" />
</g>
		<g transform="matrix(0.78 0 0 0.78 -232.13 86.26)"  >
<path style="stroke: none; stroke-width: 1; stroke-dasharray: none; stroke-linecap: butt; stroke-dashoffset: 0; stroke-linejoin: miter; stroke-miterlimit: 4; fill: rgb(0,0,0); fill-rule: nonzero; opacity: 1;" vector-effect="non-scaling-stroke"  transform=" translate(-269.85, -367.3)" d="M 260.6 339.7 L 279.1 339.7 L 279.1 394.9 L 260.6 394.9 z" stroke-linecap="round" />
</g>
		<g transform="matrix(0.78 0 0 0.78 -160.23 -14.34)"  >
<path style="stroke: none; stroke-width: 1; stroke-dasharray: none; stroke-linecap: butt; stroke-dashoffset: 0; stroke-linejoin: miter; stroke-miterlimit: 4; fill: rgb(0,0,0); fill-rule: nonzero; opacity: 1;" vector-effect="non-scaling-stroke"  transform=" translate(-361.9, -238.5)" d="M 389.5 247.7 L 334.3 247.7 L 334.3 229.29999999999998 L 389.5 229.29999999999998 z" stroke-linecap="round" />
</g>
		<g transform="matrix(0.78 0 0 0.78 -160.23 14.41)"  >
<path style="stroke: none; stroke-width: 1; stroke-dasharray: none; stroke-linecap: butt; stroke-dashoffset: 0; stroke-linejoin: miter; stroke-miterlimit: 4; fill: rgb(0,0,0); fill-rule: nonzero; opacity: 1;" vector-effect="non-scaling-stroke"  transform=" translate(-361.9, -275.3)" d="M 389.5 284.5 L 334.3 284.5 L 334.3 266.1 L 389.5 266.1 z" stroke-linecap="round" />
</g>
		<g transform="matrix(0.78 0 0 0.78 -332.81 -14.34)"  >
<path style="stroke: none; stroke-width: 1; stroke-dasharray: none; stroke-linecap: butt; stroke-dashoffset: 0; stroke-linejoin: miter; stroke-miterlimit: 4; fill: rgb(0,0,0); fill-rule: nonzero; opacity: 1;" vector-effect="non-scaling-stroke"  transform=" translate(-141, -238.5)" d="M 113.4 229.3 L 168.60000000000002 229.3 L 168.60000000000002 247.70000000000002 L 113.40000000000002 247.70000000000002 z" stroke-linecap="round" />
</g>
		<g transform="matrix(0.78 0 0 0.78 -332.81 14.41)"  >
<path style="stroke: none; stroke-width: 1; stroke-dasharray: none; stroke-linecap: butt; stroke-dashoffset: 0; stroke-linejoin: miter; stroke-miterlimit: 4; fill: rgb(0,0,0); fill-rule: nonzero; opacity: 1;" vector-effect="non-scaling-stroke"  transform=" translate(-141, -275.3)" d="M 113.4 266.1 L 168.60000000000002 266.1 L 168.60000000000002 284.5 L 113.40000000000002 284.5 z" stroke-linecap="round" />
</g>
		<g transform="matrix(0.78 0 0 0.78 196.86 46.63)"  >
<path style="stroke: none; stroke-width: 1; stroke-dasharray: none; stroke-linecap: butt; stroke-dashoffset: 0; stroke-linejoin: miter; stroke-miterlimit: 4; fill: rgb(0,0,0); fill-rule: evenodd; opacity: 1;" vector-effect="non-scaling-stroke"  transform=" translate(-819.25, -316.6)" d="M 981.3 337.1 C 983.6999999999999 341.8 988.5 345.5 995 345.5 C 1000.3 345.5 1003.8 343.6 1003.8 340.1 C 1003.8 337.1 1002.3 336 992.6999999999999 333.70000000000005 L 991.0999999999999 333.30000000000007 C 976.6999999999999 330.00000000000006 968.8999999999999 324.6000000000001 968.8999999999999 313.30000000000007 C 968.8999999999999 303.20000000000005 977.4999999999999 293.80000000000007 993.7999999999998 293.80000000000007 C 1007.7999999999998 293.80000000000007 1017.1999999999998 299.30000000000007 1020.4999999999999 310.1000000000001 L 1013.2999999999998 313.00000000000006 L 1006.0999999999998 315.6000000000001 C 1004.5999999999998 310.80000000000007 999.9999999999998 307.2000000000001 993.5999999999998 307.2000000000001 C 987.7999999999998 307.2000000000001 984.5999999999998 309.8000000000001 984.5999999999998 312.5000000000001 C 984.5999999999998 315.8000000000001 986.9999999999998 317.2000000000001 996.1999999999998 319.2000000000001 L 997.2999999999998 319.5000000000001 C 1013.6999999999998 323.10000000000014 1019.7999999999998 329.0000000000001 1019.7999999999998 339.60000000000014 C 1019.7999999999998 350.20000000000016 1010.5999999999998 359.10000000000014 995.2999999999998 359.10000000000014 C 980.7999999999998 359.10000000000014 971.7999999999998 352.5000000000001 966.8999999999999 343.10000000000014 L 974.2999999999998 340.10000000000014 z M 990.3 312.70000000000005 C 990 312.70000000000005 990.0999999999999 312.70000000000005 990.0999999999999 312.50000000000006 C 990.0999999999999 312.6000000000001 990.0999999999999 312.70000000000005 990.3 312.70000000000005 z M 958.1999999999999 331.70000000000005 L 913.8 331.70000000000005 C 915.5 339.6 921.3 344.30000000000007 929.3 344.30000000000007 C 936.0999999999999 344.30000000000007 940.6999999999999 341.6000000000001 944.9 336.30000000000007 L 957.1 345.1000000000001 C 950.1 353.80000000000007 942.2 359.1000000000001 928.3000000000001 359.1000000000001 C 908.9000000000001 359.1000000000001 897.2 344.50000000000006 897.2 326.2000000000001 C 897.2 308.6000000000001 908.9000000000001 293.8000000000001 928.3000000000001 293.8000000000001 C 946.9000000000001 293.8000000000001 958.6 307.2000000000001 958.6 324.8000000000001 C 958.6 327.0000000000001 958.6 329.3000000000001 958.2 331.7000000000001 z M 942.1999999999999 320.30000000000007 C 940.6999999999999 312.80000000000007 935.1999999999999 309.00000000000006 928.8 309.00000000000006 C 921.0999999999999 309.00000000000006 915.8 313.1000000000001 914 320.30000000000007 z M 827.0999999999999 295.20000000000005 L 843.5999999999999 295.20000000000005 L 843.5999999999999 297.6 C 847.4999999999999 295.1 852.1999999999999 293.90000000000003 857.1999999999999 293.90000000000003 C 875.9999999999999 293.90000000000003 885.6999999999999 306.1 885.6999999999999 322.3 L 885.6999999999999 357.7 L 869.4999999999999 357.7 L 869.4999999999999 322.3 C 869.4999999999999 315 864.6999999999999 309.2 856.5999999999999 309.2 C 848.6999999999999 309.2 844.9999999999999 314 843.5999999999999 316.3 L 843.5999999999999 357.7 L 827.0999999999999 357.7 z M 753.9999999999999 295.20000000000005 L 770.5999999999999 295.20000000000005 L 770.5999999999999 297.6 C 774.3999999999999 295.1 779.1999999999999 294 784.1999999999999 294 C 802.9 294 812.6999999999999 306.1 812.6999999999999 322.4 L 812.6999999999999 357.79999999999995 L 796.4 357.79999999999995 L 796.4 322.4 C 796.4 315 791.6999999999999 309.2 783.6 309.2 C 775.7 309.2 771.9 314 770.6 316.4 L 770.6 357.79999999999995 L 754 357.79999999999995 z M 741.4999999999999 331.70000000000005 L 697.0999999999999 331.70000000000005 C 698.8999999999999 339.50000000000006 704.6999999999999 344.30000000000007 712.6999999999999 344.30000000000007 C 719.4 344.30000000000007 723.9999999999999 341.50000000000006 728.3 336.30000000000007 L 740.4 345.00000000000006 C 733.4 353.80000000000007 725.5 359.1000000000001 711.6999999999999 359.1000000000001 C 692.3 359.1000000000001 680.4999999999999 344.4000000000001 680.4999999999999 326.2000000000001 C 680.4999999999999 308.5000000000001 692.2999999999998 293.8000000000001 711.6999999999999 293.8000000000001 C 730.3 293.8000000000001 741.9 307.2000000000001 741.9 324.8000000000001 C 741.9 326.90000000000015 741.9 329.3000000000001 741.5 331.7000000000001 z M 725.4999999999999 320.30000000000007 C 723.9999999999999 312.80000000000007 718.4999999999999 308.9000000000001 712.1999999999999 308.9000000000001 C 704.4 308.9000000000001 699.0999999999999 313.0000000000001 697.4 320.30000000000007 z M 617.9999999999999 274.1000000000001 L 644.9999999999999 274.1000000000001 C 658.4999999999999 274.1000000000001 671.8999999999999 284.6000000000001 671.8999999999999 300.4000000000001 L 671.8999999999999 300.5000000000001 C 671.8999999999999 309.8000000000001 666.9999999999999 319.4000000000001 657.6999999999998 324.2000000000001 L 673.6999999999998 357.7000000000001 L 656.4999999999998 357.7000000000001 L 642.0999999999998 327.0000000000001 L 634.4999999999998 327.0000000000001 L 634.4999999999998 357.7000000000001 L 617.9999999999998 357.7000000000001 z M 642.2999999999998 311.30000000000007 C 650.2999999999998 311.30000000000007 655.4999999999999 307.80000000000007 655.5999999999998 300.50000000000006 C 655.4999999999998 294.00000000000006 650.1999999999998 289.70000000000005 642.2999999999998 289.70000000000005 L 634.4999999999999 289.70000000000005 L 634.4999999999999 311.30000000000007 z" stroke-linecap="round" />
</g>
		<g transform="matrix(0.78 0 0 0.78 129.01 -57.24)"  >
<path style="stroke: none; stroke-width: 1; stroke-dasharray: none; stroke-linecap: butt; stroke-dashoffset: 0; stroke-linejoin: miter; stroke-miterlimit: 4; fill: rgb(0,0,0); fill-rule: evenodd; opacity: 1;" vector-effect="non-scaling-stroke"  transform=" translate(-732.55, -183.65)" d="M 992.8 137 L 1010.5999999999999 137 L 998.0999999999999 157.7 L 981.5999999999999 157.7 z M 1020 202.9 L 975.6 202.9 C 977.4 210.8 983.2 215.5 991.2 215.5 C 997.9000000000001 215.5 1002.5 212.8 1006.8000000000001 207.5 L 1018.9000000000001 216.3 C 1011.9000000000001 225.10000000000002 1004.0000000000001 230.3 990.2 230.3 C 970.8000000000001 230.3 959 215.70000000000002 959 197.4 C 959 179.8 970.8 165 990.2 165 C 1008.8000000000001 165 1020.4000000000001 178.4 1020.4000000000001 196 C 1020.4000000000001 198.2 1020.4000000000001 200.5 1020.0000000000001 202.9 z M 1004 191.5 C 1002.5 184 997 180.2 990.7 180.2 C 982.9000000000001 180.2 977.7 184.29999999999998 975.9000000000001 191.5 z M 920.5 181.5 L 908 181.5 L 908 166.4 L 920.5 166.4 L 920.5 147.4 L 936.5 147.4 L 936.5 166.4 L 953.9 166.4 L 953.9 181.5 L 936.5 181.5 L 936.5 228.9 L 920.5 228.9 z M 881.2 137.5 L 897.7 137.5 L 897.7 154.5 L 881.2 154.5 z M 881.4000000000001 166.4 L 897.5000000000001 166.4 L 897.5000000000001 228.9 L 881.4000000000001 228.9 z M 829.6000000000001 208.3 C 831.9000000000001 213.10000000000002 836.7000000000002 216.70000000000002 843.2000000000002 216.70000000000002 C 848.6000000000001 216.70000000000002 852.1000000000001 214.8 852.1000000000001 211.3 C 852.1000000000001 208.3 850.6000000000001 207.20000000000002 840.9000000000001 204.9 L 839.3000000000001 204.6 C 824.9000000000001 201.2 817.2 195.79999999999998 817.2 184.6 C 817.2 174.4 825.7 165.1 842.1 165.1 C 856.1 165.1 865.4 170.6 868.7 181.29999999999998 L 861.6 184.2 L 854.3000000000001 186.79999999999998 C 852.8000000000001 182.1 848.2 178.39999999999998 841.8000000000001 178.39999999999998 C 836.1 178.39999999999998 832.8000000000001 181.09999999999997 832.8000000000001 183.7 C 832.8000000000001 187.1 835.2 188.39999999999998 844.4000000000001 190.39999999999998 L 845.6000000000001 190.7 C 861.9000000000001 194.29999999999998 868.1000000000001 200.2 868.1000000000001 210.79999999999998 C 868.1000000000001 221.49999999999997 858.8000000000002 230.29999999999998 843.6000000000001 230.29999999999998 C 829.1000000000001 230.29999999999998 820.0000000000001 223.7 815.2000000000002 214.29999999999998 L 822.5000000000001 211.29999999999998 z M 838.7000000000002 183.9 C 838.3000000000002 183.9 838.4000000000002 183.9 838.4000000000002 183.70000000000002 C 838.4000000000002 183.8 838.4000000000002 183.9 838.7000000000002 183.9 z M 772.5000000000001 166.4 L 789.3000000000001 166.4 L 789.3000000000001 171.1 L 808.5000000000001 163.7 L 808.5000000000001 179.89999999999998 L 789.3000000000001 187.39999999999998 L 789.3000000000001 228.99999999999997 L 772.5000000000001 228.99999999999997 z M 759.7000000000002 202.9 L 715.3000000000002 202.9 C 717.1000000000001 210.8 722.8000000000002 215.5 730.9000000000002 215.5 C 737.6000000000003 215.5 742.2000000000002 212.8 746.5000000000002 207.5 L 758.6000000000003 216.3 C 751.6000000000003 225 743.7000000000003 230.3 729.9000000000002 230.3 C 710.5000000000002 230.3 698.7000000000002 215.60000000000002 698.7000000000002 197.4 C 698.7000000000002 179.70000000000002 710.5000000000001 165 729.9000000000002 165 C 748.5000000000002 165 760.1000000000003 178.4 760.1000000000003 196 C 760.1000000000003 198.1 760.1000000000003 200.5 759.7000000000003 202.9 z M 743.7000000000002 191.5 C 742.2000000000002 184 736.7000000000002 180.1 730.4000000000002 180.1 C 722.6000000000003 180.1 717.3000000000002 184.2 715.6000000000003 191.5 z M 652.9000000000002 228.9 L 627.5000000000002 166.4 L 644.7000000000003 166.4 L 661.0000000000002 207.3 L 676.4000000000002 166.4 L 693.6000000000003 166.4 L 670.0000000000002 228.9 z M 601.5000000000002 137.5 L 618.1000000000003 137.5 L 618.1000000000003 154.5 L 601.5000000000002 154.5 z M 601.8000000000002 166.4 L 617.8000000000002 166.4 L 617.8000000000002 228.9 L 601.8000000000002 228.9 z M 528.3000000000002 166.4 L 544.8000000000002 166.4 L 544.8000000000002 168.8 C 548.6000000000001 166.3 553.4000000000002 165.10000000000002 558.4000000000002 165.10000000000002 C 577.2000000000002 165.10000000000002 586.9000000000002 177.3 586.9000000000002 193.50000000000003 L 586.9000000000002 228.90000000000003 L 570.7000000000002 228.90000000000003 L 570.7000000000002 193.50000000000003 C 570.7000000000002 186.20000000000002 565.9000000000002 180.40000000000003 557.8000000000002 180.40000000000003 C 549.9000000000002 180.40000000000003 546.1000000000001 185.20000000000005 544.8000000000002 187.50000000000003 L 544.8000000000002 228.90000000000003 L 528.3000000000002 228.90000000000003 z M 461.20000000000016 145.4 L 461.20000000000016 195.8 C 461.20000000000016 207.10000000000002 467.60000000000014 213.9 478.60000000000014 213.9 C 489.60000000000014 213.9 496.10000000000014 207.1 496.10000000000014 195.8 L 496.10000000000014 145.4 L 512.6000000000001 145.4 L 512.6000000000001 195.8 C 512.6000000000001 216.3 499.5000000000001 230.20000000000002 478.60000000000014 230.20000000000002 C 457.70000000000016 230.20000000000002 444.70000000000016 216.3 444.70000000000016 195.8 L 444.70000000000016 145.4 z" stroke-linecap="round" />
</g>
		<g transform="matrix(0.78 0 0 0.78 -42.98 43.38)"  >
<path style="stroke: none; stroke-width: 1; stroke-dasharray: none; stroke-linecap: butt; stroke-dashoffset: 0; stroke-linejoin: miter; stroke-miterlimit: 4; fill: rgb(0,0,0); fill-rule: evenodd; opacity: 1;" vector-effect="non-scaling-stroke"  transform=" translate(-512.05, -312.45)" d="M 579 331.7 L 534.6 331.7 C 536.4 339.59999999999997 542.1 344.3 550.1 344.3 C 556.9 344.3 561.5 341.6 565.8000000000001 336.3 L 577.9000000000001 345.1 C 570.9000000000001 353.8 563.0000000000001 359.1 549.1000000000001 359.1 C 529.8000000000002 359.1 518.0000000000001 344.5 518.0000000000001 326.20000000000005 C 518.0000000000001 308.6 529.8000000000001 293.80000000000007 549.1000000000001 293.80000000000007 C 567.8000000000002 293.80000000000007 579.4000000000001 307.20000000000005 579.4000000000001 324.80000000000007 C 579.4000000000001 327.00000000000006 579.4000000000001 329.30000000000007 579.0000000000001 331.70000000000005 z M 563 320.3 C 561.5 312.8 556 309 549.6 309 C 541.9 309 536.6 313.1 534.9 320.3 z M 491.2 355.1 C 486.09999999999997 358.20000000000005 481.2 359.1 476.7 359.1 C 457.4 359.1 444.7 345.5 444.7 326.5 C 444.7 307.2 458.7 293.8 476.7 293.8 C 481.7 293.8 486.5 294.90000000000003 491.2 296.90000000000003 L 491.2 265.8 L 508 265.8 L 508 357.70000000000005 L 491.2 357.70000000000005 z M 478.3 343.90000000000003 C 484.2 343.90000000000003 488 341.90000000000003 491.2 338.90000000000003 L 491.2 313.1 C 487.5 310.70000000000005 483 309.1 478.59999999999997 309.1 C 469.09999999999997 309.1 461.2 315.40000000000003 461.2 326.5 C 461.2 337.6 469.2 343.9 478.3 343.9 z" stroke-linecap="round" />
</g>
</g>
</g>
</svg>